<svg width="242" height="24" viewBox="0 0 242 24" fill="none" xmlns="http://www.w3.org/2000/svg">
<path fill-rule="evenodd" clip-rule="evenodd" d="M81.7514 22.8595C81.7514 23.3664 81.4961 23.6198 80.9854 23.6198H71.9885C71.7712 23.6198 71.5946 23.5565 71.4588 23.4298C71.323 23.303 71.2551 23.124 71.2551 22.8926C71.2551 22.6942 71.3013 22.5344 71.3936 22.4132C71.486 22.292 71.6299 22.1928 71.8255 22.1157L72.5264 21.9008C72.7002 21.8457 72.836 21.741 72.9338 21.5868C73.0316 21.4325 73.0805 21.2121 73.0805 20.9256V11.3719C73.0805 11.2176 73.0425 11.0882 72.9664 10.9835C72.8904 10.8788 72.7491 10.7824 72.5427 10.6942L71.5974 10.3802C71.3474 10.259 71.1682 10.1295 71.0595 9.99174C70.9508 9.85399 70.8965 9.68595 70.8965 9.4876C70.8965 9.28926 70.9644 9.12672 71.1002 9L71.1536 8.95545C71.2837 8.85843 71.4534 8.80992 71.6625 8.80992H73.0928L73.0815 8.71333C73.051 8.52014 72.9746 8.33471 72.8523 8.15702C72.6894 7.92011 72.5046 7.65289 72.2982 7.35537C72.0917 7.05785 71.907 6.70248 71.744 6.28926C71.5811 5.87603 71.4996 5.36639 71.4996 4.76033C71.4996 3.3168 71.9885 2.16253 72.9664 1.29752C73.9444 0.432507 75.3352 0 77.1389 0C78.3015 0 79.2659 0.187328 80.0319 0.561983C80.798 0.936639 81.3711 1.43526 81.7514 2.05785C82.1317 2.68044 82.3219 3.36088 82.3219 4.09917C82.3219 4.9697 82.0964 5.62259 81.6455 6.05785C81.1946 6.49311 80.616 6.71074 79.9097 6.71074C79.1273 6.71074 78.4971 6.4573 78.019 5.95041C77.5409 5.44353 77.3019 4.77135 77.3019 3.93388V2.46281C77.3019 2.07713 77.2258 1.79339 77.0737 1.61157C76.9216 1.42975 76.688 1.33884 76.3729 1.33884C75.9708 1.33884 75.6666 1.47658 75.4601 1.75207C75.2537 2.02755 75.1505 2.42424 75.1505 2.94215C75.1505 3.47107 75.2727 3.96694 75.5172 4.42975C75.7617 4.89256 76.0632 5.32507 76.4218 5.72727C76.7803 6.12948 77.1389 6.51515 77.4975 6.8843C77.856 7.25344 78.1576 7.61708 78.402 7.97521L78.4717 8.08256C78.6037 8.29711 78.6918 8.51066 78.7358 8.72322L78.7507 8.80992H81.1647C81.4146 8.80992 81.6075 8.86226 81.7433 8.96694C81.8791 9.07162 81.947 9.23416 81.947 9.45455C81.947 9.78512 81.8058 10.0551 81.5232 10.2645C81.2407 10.4738 80.7952 10.5785 80.1868 10.5785H79.0295V20.876C79.0295 21.1846 79.0757 21.4215 79.1681 21.5868C79.2604 21.7521 79.4098 21.8512 79.6163 21.8843L81.018 22.0992C81.2679 22.1322 81.4526 22.2121 81.5721 22.3388C81.6917 22.4656 81.7514 22.6391 81.7514 22.8595ZM49.6593 23.2397C48.6814 23.7135 47.5405 23.9504 46.2366 23.9504C44.8567 23.9504 43.6207 23.6584 42.5287 23.0744C41.4367 22.4904 40.5755 21.6446 39.9453 20.5372C39.3151 19.4298 39 18.0826 39 16.4959C39 14.9642 39.3287 13.595 39.9861 12.3884C40.6434 11.1818 41.5589 10.2287 42.7324 9.52892C43.9059 8.8292 45.275 8.47934 46.8397 8.47934C48.1762 8.47934 49.3035 8.67769 50.2216 9.07438C51.1398 9.47107 51.8406 10.0083 52.3242 10.686C52.8077 11.3636 53.0495 12.1212 53.0495 12.9587C53.0495 13.8402 52.7968 14.5317 52.2916 15.0331C51.7863 15.5344 51.099 15.7851 50.2298 15.7851C49.3388 15.7851 48.6624 15.5289 48.2006 15.0165C47.7388 14.5041 47.5079 13.8017 47.5079 12.9091V11.8512C47.5079 11.3113 47.4101 10.9036 47.2145 10.6281C47.0189 10.3526 46.7419 10.2149 46.3833 10.2149C46.0247 10.2149 45.7015 10.3609 45.4135 10.6529C45.1256 10.9449 44.9028 11.3829 44.7453 11.9669C44.5877 12.551 44.509 13.2727 44.509 14.1322C44.509 15.3664 44.691 16.4022 45.055 17.2397C45.419 18.0771 45.9161 18.7052 46.5463 19.124C47.1765 19.5427 47.8936 19.7521 48.6977 19.7521C49.5018 19.7521 50.1755 19.6336 50.7187 19.3967C51.262 19.1598 51.6804 18.7603 51.9737 18.1983C52.1367 18.0441 52.2644 17.9449 52.3568 17.9008C52.4491 17.8567 52.5388 17.8347 52.6257 17.8347C52.7344 17.8457 52.824 17.8981 52.8946 17.9917C52.9652 18.0854 52.9951 18.2314 52.9843 18.4298C52.8973 19.5096 52.5659 20.4628 51.99 21.2893C51.4142 22.1157 50.6373 22.7658 49.6593 23.2397ZM66.2269 22.9091C65.0045 23.5813 63.5838 23.9174 61.9648 23.9174C60.3893 23.9174 59.0066 23.5895 57.8168 22.9339C56.627 22.2782 55.7007 21.3719 55.0379 20.2149C54.3751 19.0579 54.0437 17.719 54.0437 16.1983C54.0437 14.7438 54.3914 13.4353 55.0868 12.2727C55.7822 11.1102 56.7438 10.1873 57.9717 9.50413C59.1995 8.82094 60.612 8.47934 62.2093 8.47934C63.7957 8.47934 65.1811 8.80992 66.3655 9.47107C67.5498 10.1322 68.4734 11.0468 69.1362 12.2149C69.7991 13.3829 70.1305 14.7328 70.1305 16.2645C70.1305 17.719 69.7855 19.022 69.0955 20.1736C68.4055 21.3251 67.4493 22.2369 66.2269 22.9091ZM63.2035 22.1983C62.8667 22.2645 62.538 22.1157 62.2175 21.7521C61.8969 21.3884 61.5927 20.7769 61.3047 19.9174C61.0168 19.0579 60.7424 17.9284 60.4817 16.5289C60.2317 15.1295 60.0905 13.978 60.0579 13.0744C60.0253 12.1708 60.0905 11.4876 60.2535 11.0248C60.4165 10.562 60.6664 10.292 61.0032 10.2149C61.3401 10.1488 61.6687 10.2975 61.9893 10.6612C62.3098 11.0248 62.6168 11.6364 62.9102 12.4959C63.2035 13.3554 63.4806 14.4848 63.7414 15.8843C64.0022 17.2837 64.1461 18.438 64.1733 19.3471C64.2005 20.2562 64.1298 20.9421 63.9614 21.405C63.793 21.8678 63.5404 22.1322 63.2035 22.1983ZM92.3619 23.6198C92.8726 23.6198 93.1279 23.3664 93.1279 22.8595C93.1279 22.6391 93.0681 22.4656 92.9486 22.3388C92.8291 22.2121 92.6444 22.1322 92.3945 22.0992L90.9928 21.8843C90.7863 21.8512 90.6369 21.7521 90.5446 21.5868C90.4522 21.4215 90.406 21.1846 90.406 20.876V10.5785H91.5632C92.1717 10.5785 92.6172 10.4738 92.8997 10.2645C93.1822 10.0551 93.3235 9.78512 93.3235 9.45455C93.3235 9.23416 93.2556 9.07162 93.1198 8.96694C92.9839 8.86226 92.7911 8.80992 92.5411 8.80992H90.1271L90.1122 8.72322C90.0682 8.51066 89.9802 8.29711 89.8482 8.08256L89.7785 7.97521C89.534 7.61708 89.2325 7.25344 88.8739 6.8843C88.5154 6.51515 88.1568 6.12948 87.7982 5.72727C87.4397 5.32507 87.1381 4.89256 86.8937 4.42975C86.6492 3.96694 86.5269 3.47107 86.5269 2.94215C86.5269 2.42424 86.6302 2.02755 86.8366 1.75207C87.0431 1.47658 87.3473 1.33884 87.7493 1.33884C88.0644 1.33884 88.2981 1.42975 88.4502 1.61157C88.6023 1.79339 88.6784 2.07713 88.6784 2.46281V3.93388C88.6784 4.77135 88.9174 5.44353 89.3955 5.95041C89.8736 6.4573 90.5038 6.71074 91.2862 6.71074C91.9924 6.71074 92.571 6.49311 93.022 6.05785C93.4729 5.62259 93.6984 4.9697 93.6984 4.09917C93.6984 3.36088 93.5082 2.68044 93.1279 2.05785C92.7476 1.43526 92.1744 0.936639 91.4084 0.561983C90.6424 0.187328 89.678 0 88.5154 0C86.7117 0 85.3208 0.432507 84.3429 1.29752C83.365 2.16253 82.876 3.3168 82.876 4.76033C82.876 5.36639 82.9575 5.87603 83.1205 6.28926C83.2835 6.70248 83.4682 7.05785 83.6747 7.35537C83.8811 7.65289 84.0658 7.92011 84.2288 8.15702C84.3511 8.33471 84.4275 8.52014 84.458 8.71333L84.4692 8.80992H83.039C82.8299 8.80992 82.6602 8.85843 82.5301 8.95545L82.4767 9C82.3409 9.12672 82.273 9.28926 82.273 9.4876C82.273 9.68595 82.3273 9.85399 82.436 9.99174C82.5446 10.1295 82.7239 10.259 82.9738 10.3802L83.9192 10.6942C84.1256 10.7824 84.2669 10.8788 84.3429 10.9835C84.419 11.0882 84.457 11.2176 84.457 11.3719V20.9256C84.457 21.2121 84.4081 21.4325 84.3103 21.5868C84.2125 21.741 84.0767 21.8457 83.9029 21.9008L83.202 22.1157C83.0064 22.1928 82.8625 22.292 82.7701 22.4132C82.6777 22.5344 82.6316 22.6942 82.6316 22.8926C82.6316 23.124 82.6995 23.303 82.8353 23.4298C82.9711 23.5565 83.1477 23.6198 83.365 23.6198H92.3619ZM105.124 23.1405C104.07 23.6804 102.853 23.9504 101.473 23.9504C99.9516 23.9504 98.6151 23.6336 97.4633 23C96.3116 22.3664 95.4124 21.4793 94.7659 20.3388C94.1194 19.1983 93.7961 17.8788 93.7961 16.3802C93.7961 14.8044 94.1085 13.4242 94.7333 12.2397C95.3581 11.0551 96.2627 10.1322 97.447 9.47107C98.6314 8.80992 100.055 8.47934 101.717 8.47934C103.13 8.47934 104.347 8.75758 105.368 9.31405C106.39 9.87052 107.175 10.6253 107.723 11.5785C108.272 12.5317 108.546 13.5923 108.546 14.7603C108.546 15.2672 108.411 15.6667 108.139 15.9587L108.074 16.0235C107.806 16.2723 107.437 16.3967 106.965 16.3967H99.5147L99.5307 16.4729C99.7284 17.3804 100.066 18.1071 100.544 18.6529C101.359 19.584 102.445 20.0496 103.804 20.0496C104.673 20.0496 105.442 19.8512 106.11 19.4545C106.778 19.0578 107.226 18.5069 107.454 17.8017C107.585 17.6584 107.702 17.562 107.805 17.5124C107.908 17.4628 107.998 17.438 108.074 17.438C108.182 17.438 108.275 17.4821 108.351 17.5702C108.427 17.6584 108.465 17.8072 108.465 18.0165C108.465 19.0964 108.172 20.0854 107.585 20.9835C106.998 21.8815 106.178 22.6005 105.124 23.1405ZM99.3447 15.0717C99.3291 14.8181 99.3214 14.5546 99.3214 14.281C99.3214 13.2452 99.3975 12.4298 99.5496 11.8347C99.7017 11.2397 99.8973 10.8182 100.136 10.5702C100.375 10.3223 100.642 10.1983 100.935 10.1983C101.315 10.1983 101.671 10.5234 102.003 11.1736C102.334 11.8237 102.5 12.9036 102.5 14.4132C102.5 14.876 102.293 15.1074 101.88 15.1074H99.3467L99.3447 15.0717ZM120.705 23.1405C119.651 23.6804 118.434 23.9504 117.054 23.9504C115.533 23.9504 114.197 23.6336 113.045 23C111.893 22.3664 110.994 21.4793 110.347 20.3388C109.701 19.1983 109.378 17.8788 109.378 16.3802C109.378 14.8044 109.69 13.4242 110.315 12.2397C110.94 11.0551 111.844 10.1322 113.029 9.47107C114.213 8.80992 115.636 8.47934 117.299 8.47934C118.711 8.47934 119.928 8.75758 120.95 9.31405C121.971 9.87052 122.756 10.6253 123.305 11.5785C123.854 12.5317 124.128 13.5923 124.128 14.7603C124.128 15.2672 123.992 15.6667 123.721 15.9587L123.656 16.0235C123.388 16.2723 123.018 16.3967 122.547 16.3967H115.096L115.112 16.4729C115.31 17.3804 115.648 18.1071 116.125 18.6529C116.94 19.584 118.027 20.0496 119.385 20.0496C120.254 20.0496 121.023 19.8512 121.691 19.4545C122.36 19.0578 122.808 18.5069 123.036 17.8017C123.166 17.6584 123.283 17.562 123.386 17.5124C123.49 17.4628 123.579 17.438 123.655 17.438C123.764 17.438 123.856 17.4821 123.932 17.5702C124.008 17.6584 124.046 17.8072 124.046 18.0165C124.046 19.0964 123.753 20.0854 123.166 20.9835C122.58 21.8815 121.759 22.6005 120.705 23.1405ZM114.926 15.0717C114.911 14.8181 114.903 14.5546 114.903 14.281C114.903 13.2452 114.979 12.4298 115.131 11.8347C115.283 11.2397 115.479 10.8182 115.718 10.5702C115.957 10.3223 116.223 10.1983 116.517 10.1983C116.897 10.1983 117.253 10.5234 117.584 11.1736C117.915 11.8237 118.081 12.9036 118.081 14.4132C118.081 14.876 117.875 15.1074 117.462 15.1074H114.928L114.926 15.0717ZM134.6 23.4132C134.464 23.551 134.266 23.6198 134.005 23.6198H125.856C125.617 23.6198 125.429 23.5537 125.293 23.4215C125.158 23.2893 125.09 23.1074 125.09 22.876C125.09 22.6997 125.13 22.5537 125.212 22.438C125.293 22.3223 125.405 22.2149 125.546 22.1157L125.921 21.9669C126.062 21.9008 126.16 21.7961 126.214 21.6529C126.269 21.5096 126.296 21.2727 126.296 20.9421V12.5455C126.296 12.281 126.266 12.0909 126.206 11.9752C126.146 11.8595 126.046 11.7686 125.905 11.7025L125.481 11.6529C125.329 11.5647 125.217 11.4711 125.147 11.3719C125.076 11.2727 125.041 11.146 125.041 10.9917C125.041 10.8154 125.095 10.6584 125.204 10.5207C125.312 10.3829 125.497 10.2645 125.758 10.1653L130.387 8.82645C130.658 8.71625 130.886 8.63912 131.071 8.59504C131.256 8.55096 131.413 8.52893 131.544 8.52893C131.729 8.52893 131.867 8.59504 131.959 8.72727L131.989 8.77523C132.065 8.91344 132.118 9.13437 132.147 9.43802L132.271 12.0064L132.299 11.9116C132.354 11.7327 132.415 11.5611 132.481 11.3967C132.878 10.4105 133.402 9.67769 134.054 9.19835C134.706 8.71901 135.418 8.47934 136.189 8.47934C137.123 8.47934 137.841 8.79339 138.34 9.42149C138.84 10.0496 139.09 11.0028 139.09 12.281C139.09 13.5482 138.829 14.4793 138.308 15.0744C137.786 15.6694 137.113 15.9669 136.287 15.9669C135.483 15.9669 134.888 15.7631 134.502 15.3554C134.116 14.9477 133.913 14.3691 133.891 13.6198L133.875 12.9587C133.864 12.7052 133.815 12.5069 133.728 12.3636C133.641 12.2204 133.5 12.1488 133.304 12.1488C133.109 12.1488 132.937 12.2507 132.791 12.4545C132.644 12.6584 132.533 12.9697 132.457 13.3884C132.381 13.8072 132.343 14.3416 132.343 14.9917V20.8099C132.343 21.1185 132.391 21.3636 132.489 21.5455C132.587 21.7273 132.739 21.8402 132.946 21.8843L134.168 22.1322C134.396 22.1653 134.559 22.2507 134.657 22.3884C134.755 22.5262 134.804 22.6887 134.804 22.876C134.804 23.0964 134.736 23.2755 134.6 23.4132ZM147.631 23.9174C149.25 23.9174 150.67 23.5813 151.893 22.9091C153.115 22.2369 154.071 21.3251 154.761 20.1736C155.451 19.022 155.796 17.719 155.796 16.2645C155.796 14.7328 155.465 13.3829 154.802 12.2149C154.139 11.0468 153.216 10.1322 152.031 9.47107C150.847 8.80992 149.462 8.47934 147.875 8.47934C146.278 8.47934 144.865 8.82094 143.637 9.50413C142.41 10.1873 141.448 11.1102 140.753 12.2727C140.057 13.4353 139.71 14.7438 139.71 16.1983C139.71 17.719 140.041 19.0579 140.704 20.2149C141.367 21.3719 142.293 22.2782 143.483 22.9339C144.672 23.5895 146.055 23.9174 147.631 23.9174ZM147.883 21.7521C148.204 22.1157 148.533 22.2645 148.869 22.1983C149.206 22.1322 149.459 21.8678 149.627 21.405C149.796 20.9421 149.866 20.2562 149.839 19.3471C149.812 18.438 149.668 17.2837 149.407 15.8843C149.146 14.4848 148.869 13.3554 148.576 12.4959C148.283 11.6364 147.976 11.0248 147.655 10.6612C147.335 10.2975 147.006 10.1488 146.669 10.2149C146.332 10.292 146.082 10.562 145.919 11.0248C145.756 11.4876 145.691 12.1708 145.724 13.0744C145.756 13.978 145.898 15.1295 146.147 16.5289C146.408 17.9284 146.683 19.0579 146.971 19.9174C147.259 20.7769 147.563 21.3884 147.883 21.7521ZM168.721 23.9504C169.634 23.9504 170.384 23.7824 170.97 23.4463C171.557 23.1102 171.994 22.7107 172.282 22.2479C172.57 21.7851 172.714 21.3609 172.714 20.9752C172.714 20.8099 172.679 20.6722 172.608 20.562C172.538 20.4518 172.443 20.3967 172.323 20.3967C172.269 20.3967 172.22 20.4077 172.176 20.4298C172.133 20.4518 172.095 20.4848 172.062 20.5289C172.008 20.7273 171.924 20.865 171.81 20.9421C171.696 21.0193 171.573 21.0578 171.443 21.0578C171.258 21.0578 171.12 20.9945 171.027 20.8678C170.935 20.741 170.889 20.573 170.889 20.3636V13.0579C170.889 11.6033 170.397 10.4766 169.414 9.67769C168.43 8.87879 166.89 8.47934 164.793 8.47934C163.163 8.47934 161.802 8.6832 160.71 9.09091C159.618 9.49862 158.798 10.0193 158.249 10.6529C157.701 11.2865 157.426 11.9339 157.426 12.595C157.426 13.3003 157.63 13.8375 158.037 14.2066C158.445 14.5758 159.034 14.7603 159.806 14.7603C160.751 14.7603 161.495 14.5041 162.039 13.9917C162.582 13.4793 162.854 12.8154 162.854 12V10.7438C162.854 10.4353 162.949 10.1956 163.139 10.0248C163.329 9.85399 163.565 9.76859 163.848 9.76859C164.152 9.76859 164.394 9.88154 164.573 10.1074C164.752 10.3333 164.842 10.6391 164.842 11.0248L164.842 15.843L164.755 15.8241C164.493 15.7735 164.189 15.7446 163.844 15.7373L163.669 15.7355C161.332 15.7355 159.591 16.1322 158.445 16.9256C157.299 17.719 156.725 18.8264 156.725 20.2479C156.725 21.3278 157.119 22.2149 157.907 22.9091C158.695 23.6033 159.741 23.9504 161.044 23.9504C162.022 23.9504 162.935 23.7493 163.783 23.3471C164.418 23.0455 164.935 22.6493 165.332 22.1586L165.355 22.1299L165.379 22.2039C165.504 22.5612 165.733 22.8813 166.067 23.1642L166.17 23.2479C166.773 23.7163 167.624 23.9504 168.721 23.9504ZM163.106 20.8347C163.372 21.1928 163.723 21.3719 164.158 21.3719L164.251 21.3687C164.436 21.3558 164.615 21.3041 164.789 21.2137L164.842 21.1837V16.9422L164.761 16.9174C164.576 16.8678 164.359 16.843 164.109 16.843C163.685 16.843 163.345 17.0413 163.09 17.438C162.835 17.8347 162.707 18.4187 162.707 19.1901C162.707 19.9284 162.84 20.4766 163.106 20.8347ZM180.212 24C182.146 24 183.629 23.5537 184.661 22.6612C185.694 21.7686 186.21 20.551 186.21 19.0083C186.21 18.0716 186.036 17.2507 185.688 16.5455C185.34 15.8402 184.732 15.2149 183.863 14.6694C182.993 14.124 181.771 13.6088 180.195 13.124C179.609 12.9366 179.155 12.7466 178.834 12.5537C178.514 12.3609 178.294 12.1543 178.174 11.9339C178.055 11.7135 177.995 11.4766 177.995 11.2231C177.995 10.8485 178.131 10.5455 178.403 10.314C178.674 10.0826 179.076 9.96694 179.609 9.96694C180.348 9.96694 181.046 10.2149 181.703 10.7107C182.36 11.2066 183.086 12.0551 183.879 13.2562C184.085 13.5096 184.292 13.6942 184.498 13.8099C184.705 13.9256 184.9 13.9614 185.085 13.9174C185.313 13.8512 185.454 13.6997 185.509 13.4628C185.563 13.2259 185.552 12.8871 185.476 12.4463L185.052 9.40496C185.009 9.0854 184.927 8.8595 184.808 8.72727C184.688 8.59504 184.531 8.52893 184.335 8.52893C184.161 8.52893 183.944 8.58953 183.683 8.71074C183.423 8.83196 183.164 8.95592 182.909 9.08264C182.654 9.20937 182.461 9.27273 182.331 9.27273C182.211 9.27273 182.034 9.20661 181.801 9.07438C181.567 8.94215 181.239 8.80992 180.815 8.67769C180.391 8.54545 179.842 8.47934 179.169 8.47934C178.049 8.47934 177.042 8.6832 176.145 9.09091C175.249 9.49862 174.542 10.0799 174.026 10.8347C173.51 11.5895 173.252 12.4904 173.252 13.5372C173.252 14.4628 173.445 15.2727 173.831 15.9669C174.217 16.6612 174.806 17.2562 175.599 17.7521C176.392 18.2479 177.392 18.6501 178.598 18.9587C179.38 19.168 179.981 19.3802 180.399 19.595C180.817 19.8099 181.105 20.0441 181.263 20.2975C181.421 20.551 181.499 20.832 181.499 21.1405C181.499 21.5482 181.363 21.8843 181.092 22.1488C180.82 22.4132 180.407 22.5455 179.853 22.5455C179.332 22.5455 178.834 22.4325 178.362 22.2066C177.889 21.9807 177.403 21.5923 176.903 21.0413C176.403 20.4904 175.844 19.7355 175.224 18.7769C175.04 18.5234 174.83 18.3471 174.597 18.2479C174.363 18.1488 174.127 18.1543 173.888 18.2645C173.66 18.3526 173.513 18.5399 173.448 18.8264C173.383 19.1129 173.399 19.4656 173.497 19.8843L174.002 23.1736C174.078 23.5041 174.187 23.7245 174.328 23.8347C174.469 23.9449 174.621 24 174.784 24C174.969 24 175.194 23.9394 175.461 23.8182L176.259 23.4545C176.525 23.3333 176.74 23.2727 176.903 23.2727C177.066 23.2727 177.281 23.3333 177.547 23.4545C177.813 23.5758 178.161 23.697 178.59 23.8182C179.019 23.9394 179.56 24 180.212 24ZM195.663 23.3802C194.946 23.7603 194.098 23.9504 193.12 23.9504C191.469 23.9504 190.227 23.5482 189.396 22.7438C188.565 21.9394 188.149 20.6722 188.149 18.9422V11.4711C188.149 11.2397 188.127 11.0634 188.084 10.9421C188.041 10.8209 187.932 10.7218 187.758 10.6446L186.992 10.3967C186.807 10.3085 186.688 10.2011 186.633 10.0744C186.579 9.94766 186.552 9.79063 186.552 9.60331C186.552 9.3719 186.633 9.18182 186.796 9.03306C186.959 8.8843 187.16 8.80992 187.399 8.80992H188.198C188.296 8.80992 188.399 8.77135 188.508 8.69421C188.616 8.61708 188.763 8.46281 188.948 8.23141L191.963 5.70248C192.18 5.43802 192.398 5.23691 192.615 5.09917C192.832 4.96143 193.05 4.89256 193.267 4.89256C193.517 4.89256 193.712 4.9697 193.854 5.12397L193.898 5.17866C194.01 5.3332 194.066 5.55739 194.066 5.85124L194.065 8.80992H197.472C197.711 8.80992 197.896 8.86226 198.026 8.96694C198.157 9.07163 198.222 9.23416 198.222 9.45455C198.222 9.76309 198.086 10.0275 197.814 10.2479L197.754 10.2935C197.48 10.4835 197.065 10.5785 196.51 10.5785H194.065L194.066 18.1157C194.066 18.9421 194.204 19.5537 194.481 19.9504C194.758 20.3471 195.163 20.5455 195.695 20.5455C195.924 20.5455 196.136 20.4959 196.331 20.3967C196.527 20.2975 196.703 20.168 196.861 20.0083C197.018 19.8485 197.168 19.6694 197.309 19.4711C197.45 19.2727 197.586 19.0744 197.717 18.876C197.825 18.832 197.92 18.8512 198.002 18.9339C198.083 19.0165 198.119 19.1846 198.108 19.438C198.032 20.3306 197.784 21.1157 197.366 21.7934C196.948 22.4711 196.38 23 195.663 23.3802ZM206.339 23.9504C207.718 23.9504 208.935 23.6804 209.989 23.1405C211.043 22.6005 211.864 21.8815 212.451 20.9835C213.037 20.0854 213.331 19.0964 213.331 18.0165C213.331 17.8072 213.293 17.6584 213.217 17.5702C213.14 17.4821 213.048 17.438 212.939 17.438C212.863 17.438 212.774 17.4628 212.671 17.5124C212.567 17.562 212.451 17.6584 212.32 17.8017C212.092 18.5069 211.644 19.0578 210.975 19.4545C210.307 19.8512 209.538 20.0496 208.669 20.0496C207.311 20.0496 206.224 19.584 205.409 18.6529C204.932 18.1071 204.594 17.3804 204.396 16.4729L204.38 16.3967H211.831C212.303 16.3967 212.672 16.2723 212.94 16.0235L213.005 15.9587C213.276 15.6667 213.412 15.2672 213.412 14.7603C213.412 13.5923 213.138 12.5317 212.589 11.5785C212.04 10.6253 211.255 9.87052 210.234 9.31405C209.212 8.75758 207.996 8.47934 206.583 8.47934C204.921 8.47934 203.497 8.80992 202.313 9.47107C201.128 10.1322 200.224 11.0551 199.599 12.2397C198.974 13.4242 198.662 14.8044 198.662 16.3802C198.662 17.8788 198.985 19.1983 199.632 20.3388C200.278 21.4793 201.177 22.3664 202.329 23C203.481 23.6336 204.817 23.9504 206.339 23.9504ZM204.187 14.281C204.187 14.5546 204.195 14.8181 204.21 15.0717L204.212 15.1074H206.746C207.159 15.1074 207.365 14.876 207.365 14.4132C207.365 12.9036 207.2 11.8237 206.868 11.1736C206.537 10.5234 206.181 10.1983 205.801 10.1983C205.507 10.1983 205.241 10.3223 205.002 10.5702C204.763 10.8182 204.567 11.2397 204.415 11.8347C204.263 12.4298 204.187 13.2452 204.187 14.281ZM223.289 23.6198C223.55 23.6198 223.748 23.551 223.884 23.4132C224.02 23.2755 224.088 23.0964 224.088 22.876C224.088 22.6887 224.039 22.5262 223.941 22.3884C223.843 22.2507 223.68 22.1653 223.452 22.1322L222.23 21.8843C222.023 21.8402 221.871 21.7273 221.773 21.5455C221.676 21.3636 221.627 21.1185 221.627 20.8099V14.9917C221.627 14.3416 221.665 13.8072 221.741 13.3884C221.817 12.9697 221.928 12.6584 222.075 12.4545C222.222 12.2507 222.393 12.1488 222.588 12.1488C222.784 12.1488 222.925 12.2204 223.012 12.3636C223.099 12.5069 223.148 12.7052 223.159 12.9587L223.175 13.6198C223.197 14.3691 223.4 14.9477 223.786 15.3554C224.172 15.7631 224.767 15.9669 225.571 15.9669C226.397 15.9669 227.07 15.6694 227.592 15.0744C228.114 14.4793 228.374 13.5482 228.374 12.281C228.374 11.0028 228.124 10.0496 227.625 9.42149C227.125 8.79339 226.408 8.47934 225.473 8.47934C224.702 8.47934 223.99 8.71901 223.338 9.19835C222.686 9.67769 222.162 10.4105 221.765 11.3967C221.699 11.5611 221.639 11.7327 221.583 11.9116L221.555 12.0069L221.431 9.43802C221.402 9.13437 221.35 8.91344 221.273 8.77523L221.244 8.72727C221.151 8.59504 221.013 8.52893 220.828 8.52893C220.698 8.52893 220.54 8.55096 220.355 8.59504C220.171 8.63912 219.942 8.71625 219.671 8.82645L215.042 10.1653C214.781 10.2645 214.596 10.3829 214.488 10.5207C214.379 10.6584 214.325 10.8154 214.325 10.9917C214.325 11.146 214.36 11.2727 214.431 11.3719C214.501 11.4711 214.613 11.5647 214.765 11.6529L215.189 11.7025C215.33 11.7686 215.43 11.8595 215.49 11.9752C215.55 12.0909 215.58 12.281 215.58 12.5455V20.9421C215.58 21.2727 215.553 21.5096 215.498 21.6529C215.444 21.7961 215.346 21.9008 215.205 21.9669L214.83 22.1157C214.689 22.2149 214.577 22.3223 214.496 22.438C214.414 22.5537 214.374 22.6997 214.374 22.876C214.374 23.1074 214.442 23.2893 214.577 23.4215C214.713 23.5537 214.901 23.6198 215.14 23.6198H223.289ZM240.452 22.6612C239.419 23.5537 237.936 24 236.002 24C235.35 24 234.81 23.9394 234.38 23.8182C233.951 23.697 233.603 23.5758 233.337 23.4545C233.071 23.3333 232.856 23.2727 232.693 23.2727C232.53 23.2727 232.316 23.3333 232.05 23.4545L231.251 23.8182C230.985 23.9394 230.759 24 230.575 24C230.412 24 230.26 23.9449 230.118 23.8347C229.977 23.7245 229.868 23.5041 229.792 23.1736L229.287 19.8843C229.189 19.4656 229.173 19.1129 229.238 18.8264C229.303 18.5399 229.45 18.3526 229.678 18.2645C229.917 18.1543 230.154 18.1488 230.387 18.2479C230.621 18.3471 230.83 18.5234 231.015 18.7769C231.634 19.7355 232.194 20.4904 232.693 21.0413C233.193 21.5923 233.68 21.9807 234.152 22.2066C234.625 22.4325 235.122 22.5455 235.644 22.5455C236.198 22.5455 236.611 22.4132 236.882 22.1488C237.154 21.8843 237.29 21.5482 237.29 21.1405C237.29 20.832 237.211 20.551 237.053 20.2975C236.896 20.0441 236.608 19.8099 236.19 19.595C235.771 19.3802 235.171 19.168 234.389 18.9587C233.182 18.6501 232.183 18.2479 231.39 17.7521C230.596 17.2562 230.007 16.6612 229.621 15.9669C229.235 15.2727 229.043 14.4628 229.043 13.5372C229.043 12.4904 229.301 11.5895 229.817 10.8347C230.333 10.0799 231.039 9.49862 231.936 9.09091C232.832 8.6832 233.84 8.47934 234.959 8.47934C235.633 8.47934 236.181 8.54545 236.605 8.67769C237.029 8.80992 237.358 8.94215 237.591 9.07438C237.825 9.20661 238.001 9.27273 238.121 9.27273C238.251 9.27273 238.444 9.20937 238.7 9.08264C238.955 8.95592 239.213 8.83196 239.474 8.71074C239.734 8.58953 239.952 8.52893 240.126 8.52893C240.321 8.52893 240.479 8.59504 240.598 8.72727C240.718 8.8595 240.799 9.0854 240.843 9.40496L241.267 12.4463C241.343 12.8871 241.353 13.2259 241.299 13.4628C241.245 13.6997 241.104 13.8512 240.875 13.9174C240.691 13.9614 240.495 13.9256 240.289 13.8099C240.082 13.6942 239.876 13.5096 239.669 13.2562C238.876 12.0551 238.151 11.2066 237.493 10.7107C236.836 10.2149 236.138 9.96694 235.399 9.96694C234.867 9.96694 234.465 10.0826 234.193 10.314C233.921 10.5455 233.785 10.8485 233.785 11.2231C233.785 11.4766 233.845 11.7135 233.965 11.9339C234.084 12.1543 234.304 12.3609 234.625 12.5537C234.945 12.7466 235.399 12.9366 235.986 13.124C237.561 13.6088 238.784 14.124 239.653 14.6694C240.522 15.2149 241.131 15.8402 241.478 16.5455C241.826 17.2507 242 18.0716 242 19.0083C242 20.551 241.484 21.7686 240.452 22.6612Z" fill="#333D4B"/>
<path fill-rule="evenodd" clip-rule="evenodd" d="M13.4893 3.00268C9.97493 -0.508874 4.76554 -1.01438 1.87661 1.87766C-1.01383 4.76821 -0.508336 9.97779 3.00008 13.4908C3.93606 14.4269 5.01454 15.1424 6.15301 15.6554C6.52651 13.4848 7.59748 11.3983 9.22344 9.68528C8.68496 9.49328 8.13297 9.33128 7.55698 9.17377C4.14606 8.23776 2.4511 5.39222 2.05511 2.05617C2.38262 2.45002 2.68082 2.86313 2.97814 3.27503C3.555 4.0742 4.12855 4.86879 4.90654 5.50922C6.11679 6.50576 7.44522 6.89045 8.89855 7.3113C8.95466 7.32755 9.01096 7.34385 9.06745 7.36025C9.75593 7.55975 10.3544 7.85525 10.9034 8.20026C12.3464 7.14574 13.9738 6.44373 15.6538 6.15423C15.1423 5.01571 14.4253 3.93869 13.4893 3.00268ZM7.54648 16.4894C7.76998 14.3159 8.82296 12.1903 10.5104 10.5028C14.0248 6.99124 19.2342 6.48423 22.1232 9.37778C25.0136 12.2683 24.5096 17.4779 20.9967 20.991C19.3092 22.6785 17.1838 23.7315 15.0103 23.9565C14.7208 23.985 14.4343 24 14.1538 24C12.2849 24 10.6154 23.3445 9.38544 22.1145C7.96947 20.7 7.31549 18.7019 7.54648 16.4894ZM12.6869 18.2729C13.8388 17.3939 15.0853 17.0459 16.4413 16.6754C19.8522 15.7394 21.5457 12.8938 21.9432 9.55778C21.6184 9.94944 21.3224 10.3598 21.0273 10.7688C20.4487 11.5709 19.8735 12.3681 19.0917 13.0108C17.8778 14.009 16.5463 14.3943 15.0864 14.8168L14.9308 14.8619C11.5934 15.8309 9.94343 18.6524 9.56244 21.936C9.89121 21.541 10.1924 21.1309 10.492 20.7229C11.1423 19.8374 11.7852 18.962 12.6869 18.2729Z" fill="#0E8784"/>
</svg>
